<svg id="レイヤー_1" data-name="レイヤー 1" xmlns="http://www.w3.org/2000/svg" viewBox="0 0 50.7 100.84"><defs><style>.cls-1{fill:#fbf6f0;}</style></defs><polygon class="cls-1" points="9.18 73.55 9.18 61.55 21.94 61.55 21.04 59.28 6.92 59.28 6.92 75.81 21.68 75.81 22.58 73.55 9.18 73.55"/><path class="cls-1" d="M35.49,51.5l-2.85-5.15a12.57,12.57,0,0,1-8.76,3.5,12.24,12.24,0,0,1-11-6.8h2a10.52,10.52,0,0,0,9,5,10.82,10.82,0,0,0,7.86-3.34,6.08,6.08,0,0,1,3.57-2.25A12.33,12.33,0,0,1,33.88,45L37,50.65,39,49.58l-2.5-4.51a13.11,13.11,0,0,0,1.2-2.54,5.78,5.78,0,0,1,4.5,5.62h2.26a8,8,0,0,0-14.33-5,8.45,8.45,0,0,1-3,2.1,9.69,9.69,0,0,1,18.94,2.88h2.26a12,12,0,0,0-9.91-11.76V30h3.28l-.88-2.22H36.22v8.46a11.27,11.27,0,0,0-1.75.15V26h6.37l.87-2.22H32.25V37L32,37,25.58,25.38l.77-.63c3.64-3,9.13-7.45,9.13-13.4A11.35,11.35,0,0,0,23.88,0,11.52,11.52,0,0,0,12.22,11.35a12.07,12.07,0,0,0,1.29,5l4.32,7.82-4.41,4.25-.08.09a13.75,13.75,0,0,0-3.83,8.39H3V79.73H22.58l-.9-2.27H5.27V39.14H21.68l.9-2.27H15.74a7.57,7.57,0,0,1,2-4.07l3.17-3.06,6.09,11a12,12,0,0,0-2.35,5.08c-.26,0-.52,0-.79,0a8.38,8.38,0,0,1-6.33-2.83h5l-.9-2.26H6.92V57.63H21l.9-2.26H9.18V43.05h1.24a14.43,14.43,0,0,0,13.46,9l.57,0V68.63a11.95,11.95,0,0,0,23.9,0V55.45H37.6l.89,2.26h7.6V68.63a9.69,9.69,0,0,1-19.38,0V51.79c.56-.11,1.11-.25,1.65-.41V68.63a8,8,0,0,0,16.07,0V59.36H38.49l-.89,2.27h4.57v7a5.77,5.77,0,0,1-11.54,0V50.45A13.58,13.58,0,0,0,32,49.69l1.59,2.88Zm-14-25.36-5.3,5.11a9.83,9.83,0,0,0-2.67,5.62H11.73A11.54,11.54,0,0,1,14.93,30l5.66-5.46-5.1-9.21a10.21,10.21,0,0,1-1.05-4,9.3,9.3,0,0,1,9.44-9.14,9.07,9.07,0,0,1,9.39,9.14c0,4.9-4.81,8.82-8.32,11.68-.87.71-1.62,1.33-2.17,1.85L30.06,38a10.74,10.74,0,0,0-1.43,1.05Z"/><path class="cls-1" d="M31.51,11.35A7.34,7.34,0,0,0,23.88,4a7.55,7.55,0,0,0-7.69,7.38A8.33,8.33,0,0,0,17,14.51L21.9,23.3c.55-.49,1.2-1,1.94-1.63C27.08,19,31.51,15.41,31.51,11.35ZM19,13.48a6,6,0,0,1-.59-2.13,5.33,5.33,0,0,1,5.47-5.17,5.13,5.13,0,0,1,5.42,5.17c0,3-4,6.3-6.76,8.53Z"/><path class="cls-1" d="M18.51,99.59,16.8,93.14H16l-1.71,6.45h.83l.38-1.4H17.3l.38,1.4Zm-2.84-2.21.71-2.66.71,2.66Zm35-4.24L49,96.7v2.89l-.41-.17-.4.17V96.7l-1.67-3.56h.89l1.18,2.51,1.18-2.51ZM33.22,96H34.8v2a1.77,1.77,0,0,1-3.53,0V94.79a1.77,1.77,0,1,1,3.53,0H34a1,1,0,1,0-1.91,0v3.15a1,1,0,0,0,1.91,0V96.79h-.77l.16-.4ZM28,99.18l.16.41H25.36V93.14l.41.16.4-.16v5.63h2Zm-15.34,0,.16.41H9.92V93.14h2.94l-.16.4.16.41H10.73v2h2l-.16.41.16.4h-2v2h2.13Zm32.23,0,.16.41H42.16V93.14h2.93l-.16.4.16.41H43v2h2l-.16.41.16.4H43v2h2.12Zm-40-2.49h.65l-.16-.4.16-.41H4.07v2.4a1.5,1.5,0,0,1-.05.37L2.55,96l.23-.19c.62-.51,1.57-1.28,1.57-2.27a1.87,1.87,0,0,0-1.92-1.88A1.91,1.91,0,0,0,.49,93.52a2,2,0,0,0,.23.83l.81,1.48-.88.84A2.32,2.32,0,0,0,0,98.28a2.4,2.4,0,0,0,2.43,2.36,2.53,2.53,0,0,0,1.5-.5l.39.7.7-.39-.51-.93a2.21,2.21,0,0,0,.37-1.24ZM1.43,94a1.18,1.18,0,0,1-.12-.45,1.1,1.1,0,0,1,1.12-1.07,1.06,1.06,0,0,1,1.11,1.07c0,.6-.77,1.23-1.27,1.65l-.12.09Zm1,5.86A1.59,1.59,0,0,1,.81,98.28a1.45,1.45,0,0,1,.42-1l.71-.69,1.59,2.87A1.69,1.69,0,0,1,2.43,99.83Zm20.92-.24-1.3-2.93a1.82,1.82,0,0,0-.66-3.52H20.12v6.45l.4-.17.41.17v-2.8h.29l1.25,2.8ZM20.93,96V94h.46a1,1,0,0,1,0,2Zm19.29,3.61-1.3-2.93a1.82,1.82,0,0,0-.67-3.52H37v6.45l.4-.17.41.17v-2.8h.3l1.24,2.8ZM37.79,96V94h.46a1,1,0,1,1,0,2Z"/></svg>