<svg xmlns="http://www.w3.org/2000/svg" viewBox="0 0 27.08 76.47"><defs><style>.cls-1{fill:none;stroke:#99774f;stroke-width:2px;}.cls-2{fill:#99774f;}</style></defs><g id="レイヤー_2" data-name="レイヤー 2"><g id="修正_201111"><path class="cls-1" d="M13.39,58.26V.26a43,43,0,0,0,4,9.47"/><path class="cls-2" d="M.27,68.57l.28-1a.66.66,0,0,1,.08-.27.16.16,0,0,1,.11,0c.08,0,.17.09.28.29a1.05,1.05,0,0,0,.19.27.41.41,0,0,0,.22.08H1.5l.29,0,1.61,0H5.87l1.06,0,.17,0,.58,0a.22.22,0,0,0,.16-.07l.23-.45c.06-.13.13-.19.22-.19l.13,0a1.29,1.29,0,0,1,0,.25v.85c0,.14,0,.59,0,1.35a.32.32,0,0,1,0,.14.27.27,0,0,1-.13,0,.12.12,0,0,1-.09-.06.87.87,0,0,1-.1-.31,2.13,2.13,0,0,0-.35-.87.72.72,0,0,0-.39-.25,6,6,0,0,0-1.23-.07H5c0,.18,0,.35,0,.5l0,4.25c0,.16,0,.48,0,1v1.42a.58.58,0,0,0,.08.34.94.94,0,0,0,.45.2c.42.1.7.17.84.19a.53.53,0,0,1,.21.06v.2l-1,0-1.2,0-1,0-.73,0a2.37,2.37,0,0,1-.38,0l-.09,0a.36.36,0,0,1,.06-.2.53.53,0,0,1,.25-.07A6.7,6.7,0,0,0,3.16,76a1.23,1.23,0,0,0,.51-.22.32.32,0,0,0,.1-.2,7.33,7.33,0,0,0,.06-1.18V73.23l0-2.54,0-.55V68.32H2.67a3.35,3.35,0,0,0-1.2.12,4.13,4.13,0,0,0-1,1.08c-.14.23-.27.34-.38.34H0a.13.13,0,0,1,0-.08,3.69,3.69,0,0,1,.11-.49A6,6,0,0,0,.27,68.57Z"/><path class="cls-2" d="M9.28,71.93a4.24,4.24,0,0,1,.16-1.24A5.05,5.05,0,0,1,10,69.51a3.93,3.93,0,0,1,1-1.07,5.67,5.67,0,0,1,1.56-.75,5.78,5.78,0,0,1,1.76-.23,5.43,5.43,0,0,1,1.4.19,4.87,4.87,0,0,1,1.25.54,4.16,4.16,0,0,1,1.12,1,3.58,3.58,0,0,1,.59,1.06,4.74,4.74,0,0,1,.26,1.54,5.6,5.6,0,0,1-.17,1.49,4,4,0,0,1-.59,1.18,5.1,5.1,0,0,1-1.1,1,4.2,4.2,0,0,1-1.29.64,5.57,5.57,0,0,1-1.67.24,5.78,5.78,0,0,1-1.62-.21,4.31,4.31,0,0,1-1.18-.52,4.2,4.2,0,0,1-1-.9,4,4,0,0,1-.76-1.31A4.41,4.41,0,0,1,9.28,71.93ZM14,76.18A5.07,5.07,0,0,0,15.21,76a3,3,0,0,0,1.1-.54,2.82,2.82,0,0,0,.75-.84,4.55,4.55,0,0,0,.43-1.22,7,7,0,0,0,.17-1.49,6.09,6.09,0,0,0-.28-1.84,3.38,3.38,0,0,0-.69-1.24A3.32,3.32,0,0,0,15.54,68a3.5,3.5,0,0,0-1.44-.29,3.63,3.63,0,0,0-1.22.2,3.23,3.23,0,0,0-1,.52,3.47,3.47,0,0,0-.71.91,5.17,5.17,0,0,0-.5,1.28,5.62,5.62,0,0,0-.17,1.25,5.79,5.79,0,0,0,.17,1.28,4.94,4.94,0,0,0,.47,1.25,3.9,3.9,0,0,0,.73.93,3.13,3.13,0,0,0,2.13.84Z"/><path class="cls-2" d="M19.87,67.57l.16,0,.76,0h.39l.63,0L23,67.49c.3,0,.66,0,1.06,0a4,4,0,0,1,1.71.3,2.17,2.17,0,0,1,1,1A2.72,2.72,0,0,1,27.08,70a2.58,2.58,0,0,1-.75,1.85,2.74,2.74,0,0,1-2,.77,2,2,0,0,1-.59-.07,2.19,2.19,0,0,1-.55-.28.33.33,0,0,1-.16-.18.27.27,0,0,1,.08-.07.79.79,0,0,1,.2,0,1.62,1.62,0,0,0,.58.08,2.08,2.08,0,0,0,1-.26,1.71,1.71,0,0,0,.72-.76,2.22,2.22,0,0,0,.25-1,2.25,2.25,0,0,0-.26-1,2.22,2.22,0,0,0-.68-.8,2,2,0,0,0-.73-.29,3.41,3.41,0,0,0-.77-.11,2.33,2.33,0,0,0-1,.12v.09l0,.78V69c0,.13,0,.31,0,.57,0,.93,0,1.51,0,1.73v.39l.09,3.12s0,.13,0,.25,0,.23,0,.32a1.57,1.57,0,0,0,.06.5l1,.23a3.26,3.26,0,0,1,.4.1.16.16,0,0,1,.09.09.18.18,0,0,1-.07.13.32.32,0,0,1-.17,0l-.38,0c-.4,0-.7-.06-.93-.06l-1.2,0-.72,0-.39,0V76.2L21,76c.14,0,.23-.08.26-.13a.62.62,0,0,0,.07-.37s0-.13,0-.27,0-.22,0-.39c0-.54,0-1.69-.07-3.44,0-.82,0-1.65,0-2.5v-.12a.88.88,0,0,0-.15-.62,2.87,2.87,0,0,0-1.26-.37.24.24,0,0,1,0-.12A.24.24,0,0,1,19.87,67.57Z"/></g></g></svg>