<svg xmlns="http://www.w3.org/2000/svg" viewBox="0 0 31.82 26.11"><defs><style>.cls-1{fill:#fbf6f0;}</style></defs><g id="レイヤー_2" data-name="レイヤー 2"><g id="レイヤー_2-2" data-name="レイヤー 2"><path class="cls-1" d="M31.82,3.19a13.5,13.5,0,0,1-3.58,1.07,1.54,1.54,0,0,0-.08-.19c.61-.51,2.49-2.16,2.72-3.41A19.14,19.14,0,0,1,27,2.28,6.75,6.75,0,0,0,15.21,6.76a6.55,6.55,0,0,0,.13,1.34C13,8,7.24,7.22,1.88,1.13a7.06,7.06,0,0,0,2,9,3.7,3.7,0,0,1-2.72-.85s-.47,4.23,4.78,6.57a6.24,6.24,0,0,1-2.53.28s.94,3.85,6,4.6A13.45,13.45,0,0,1,0,23.37s7,5,17.27,1.5S28.91,8.64,28.72,6.76A11.38,11.38,0,0,0,31.82,3.19Z"/></g></g></svg>