<svg xmlns="http://www.w3.org/2000/svg" viewBox="0 0 28.81 28.81"><defs><style>.cls-1{fill:#fbf6f0;}</style></defs><g id="レイヤー_2" data-name="レイヤー 2"><g id="レイヤー_1-2" data-name="レイヤー 1"><path class="cls-1" d="M14.4,2.59c3.85,0,4.31,0,5.82.09a8,8,0,0,1,2.68.5,4.44,4.44,0,0,1,1.65,1.07,4.46,4.46,0,0,1,1.08,1.66,7.77,7.77,0,0,1,.5,2.67c.07,1.52.08,2,.08,5.83s0,4.3-.08,5.82a7.77,7.77,0,0,1-.5,2.67,4.38,4.38,0,0,1-1.08,1.66,4.47,4.47,0,0,1-1.65,1.08,8.12,8.12,0,0,1-2.68.49c-1.51.07-2,.08-5.82.08s-4.3,0-5.82-.08a8.1,8.1,0,0,1-2.67-.49,4.5,4.5,0,0,1-1.66-1.08A4.63,4.63,0,0,1,3.17,22.9a8.1,8.1,0,0,1-.49-2.67c-.07-1.52-.08-2-.08-5.82s0-4.31.08-5.83a8.1,8.1,0,0,1,.49-2.67A4.72,4.72,0,0,1,4.25,4.25,4.48,4.48,0,0,1,5.91,3.18a8,8,0,0,1,2.67-.5c1.52-.07,2-.09,5.82-.09M14.4,0C10.49,0,10,0,8.47.09A10.48,10.48,0,0,0,5,.76,7.06,7.06,0,0,0,2.42,2.42,7.09,7.09,0,0,0,.75,5a10.51,10.51,0,0,0-.66,3.5C0,10,0,10.49,0,14.41s0,4.4.09,5.93a10.51,10.51,0,0,0,.66,3.5,7.09,7.09,0,0,0,1.67,2.55A6.93,6.93,0,0,0,5,28.05a10.48,10.48,0,0,0,3.5.67c1.53.07,2,.09,5.93.09s4.41,0,5.94-.09a10.48,10.48,0,0,0,3.5-.67,6.93,6.93,0,0,0,2.55-1.66,7.06,7.06,0,0,0,1.66-2.55,10.48,10.48,0,0,0,.67-3.5c.07-1.53.09-2,.09-5.93s0-4.41-.09-5.94A10.48,10.48,0,0,0,28.05,5a7.06,7.06,0,0,0-1.66-2.55A7.06,7.06,0,0,0,23.84.76a10.48,10.48,0,0,0-3.5-.67C18.81,0,18.32,0,14.4,0Z"/><path class="cls-1" d="M14.4,7a7.4,7.4,0,1,0,7.4,7.4A7.39,7.39,0,0,0,14.4,7Zm0,12.2a4.81,4.81,0,1,1,4.81-4.8A4.8,4.8,0,0,1,14.4,19.21Z"/><path class="cls-1" d="M23.82,6.72A1.73,1.73,0,1,1,22.09,5,1.72,1.72,0,0,1,23.82,6.72Z"/></g></g></svg>