<svg id="レイヤー_1" data-name="レイヤー 1" xmlns="http://www.w3.org/2000/svg" viewBox="0 0 202.57 37.06"><defs><style>.cls-1{fill:#fbf6f0;}</style></defs><path class="cls-1" d="M2.4,26.73A7.41,7.41,0,0,0,10,34a7.79,7.79,0,0,0,5.76-2.5L8.27,18.07,4.39,21.82A7.07,7.07,0,0,0,2.4,26.73Zm5.53-6.41L14,31.22a6.45,6.45,0,0,1-4,1.39,6,6,0,0,1-6.17-5.88,5.7,5.7,0,0,1,1.6-3.94Zm8.3,12.1,2.2,4-1.21.67-1.39-2.5A10.3,10.3,0,0,1,10,36.39,9.81,9.81,0,0,1,0,26.73a9.51,9.51,0,0,1,2.67-6.59l.05-.05L6,16.9,2.85,11.16A8.43,8.43,0,0,1,2,7.76,7.88,7.88,0,0,1,10,0a7.77,7.77,0,0,1,7.94,7.76c0,4.08-3.84,7.21-6.38,9.28l-.73.61,5.39,9.72c0-.21,0-.42,0-.64V16.9H22.3l-.55,1.39H17.59v8.44a6.92,6.92,0,0,1-1.2,3.9L9,17.35l0,0c.4-.38.95-.83,1.59-1.35,2.47-2,5.86-4.79,5.86-8.21A6.32,6.32,0,0,0,10,1.39,6.49,6.49,0,0,0,3.36,7.76a7.18,7.18,0,0,0,.73,2.78l3.67,6.62L3.67,21.1a8.13,8.13,0,0,0-2.28,5.63A8.43,8.43,0,0,0,10,35,8.83,8.83,0,0,0,16.23,32.42ZM15.49,7.76A5.33,5.33,0,0,0,10,2.4,5.48,5.48,0,0,0,4.36,7.76,6.14,6.14,0,0,0,5,10.06l3.54,6.38c.4-.38.91-.79,1.48-1.25C12.32,13.3,15.49,10.7,15.49,7.76ZM8.91,14.28,6.21,9.41a4.55,4.55,0,0,1-.46-1.65,4.1,4.1,0,0,1,4.2-4,4,4,0,0,1,4.16,4c0,2.29-3,4.73-5,6.35ZM19.31,35.9l-2.38-4.29a8,8,0,0,0,1.67-4.88V19.3h3.15l.55,1.39H20v6a9.3,9.3,0,0,1-1.43,5l2,3.53Zm32.15-7.48-.55,1.38h-9V19.69h8.65l.55,1.39H43.27v7.34Zm-9.58-9.74h8.65l.54-1.39h-7.8V9.76h8.19l-.55-1.39h-9Zm9,12.13h-10V7.36h10L51.46,6h-12V32.2h12Zm128.88-2.39-.55,1.38h-9V19.69h8.64l.55,1.39h-7.8v7.34Zm-9.58-9.74h8.64l.55-1.39h-7.8V9.76h8.19l-.55-1.39h-9Zm9,12.13h-10V7.36h10L179.79,6h-12V32.2h12ZM65.05,6l-7,26.22H56.63L63.61,6Zm.87,0,7,26.22h1.44L67.35,6ZM71.86,32.2,70,25.27H61L59.11,32.2h1.43L62,26.66H69l1.47,5.54Zm-2.12-7.94H61.22l4.26-16ZM63,22.87h4.92l-2.46-9.22Zm17,9.33V6h5.34a7.55,7.55,0,0,1,3,14.46L93.68,32.2H92.16L86.55,19.58A6.16,6.16,0,0,0,85.41,7.36h-4V31.65ZM85.41,8.37H82.47V18.68h2.94a5.16,5.16,0,1,0,0-10.31Zm0,8.92H83.86V9.76h1.55a3.77,3.77,0,1,1,0,7.53ZM89.54,32.2l-5-11.12h-.73V32.2l-1.39-.55v-12h3L91.06,32.2Zm57.67,0V6h5.34a7.55,7.55,0,0,1,3,14.46l5.24,11.76H159.3l-5.62-12.62a6.16,6.16,0,0,0-1.13-12.22h-4V31.65Zm5.34-23.83h-2.94V18.68h2.94a5.16,5.16,0,0,0,0-10.31Zm0,8.92H151V9.76h1.56a3.77,3.77,0,0,1,0,7.53Zm4.12,14.91-4.95-11.12H151V32.2l-1.38-.55v-12h3l5.57,12.51Zm-44.13-3.78L112,29.8h-8.64V6.53L104.74,6V28.42Zm0,3.78H101V6l1.39.55V30.81H112Zm20-14.91h6.58v8.07a7.31,7.31,0,0,1-14.62,0V12.83a7.31,7.31,0,0,1,14.62,0h-1.38a5.93,5.93,0,0,0-11.86,0V25.36a5.93,5.93,0,0,0,11.86,0V18.68h-4.65Zm-.73-8a3.53,3.53,0,0,0-3.53,3.53V25.36a3.53,3.53,0,0,0,7.06,0V21.08h-2.8l.55-1.39h3.64v5.67a4.92,4.92,0,0,1-9.84,0V12.83a4.92,4.92,0,0,1,9.84,0h-1.39A3.53,3.53,0,0,0,131.79,9.3ZM202.57,6l-6.81,14.5V32.2l-1.39-.55V20.17L201,6Zm-9.21,14.19V31.65L192,32.2V20.48L185.17,6h1.53ZM189.35,6l4.52,9.63L198.39,6h1.53l-6,12.89L187.82,6Z"/></svg>